<?xml version="1.0" encoding="utf-8"?>
<!-- Generator: Adobe Illustrator 12.0.0, SVG Export Plug-In . SVG Version: 6.00 Build 51448)  -->
<!DOCTYPE svg PUBLIC "-//W3C//DTD SVG 1.1//EN" "http://www.w3.org/Graphics/SVG/1.1/DTD/svg11.dtd" [
	<!ENTITY ns_svg "http://www.w3.org/2000/svg">
	<!ENTITY ns_xlink "http://www.w3.org/1999/xlink">
]>
<svg  version="1.1" id="Ebene_1" xmlns:xlink="&ns_xlink;" width="778.652" height="382.956"
	 viewBox="0 0 778.652 382.956" overflow="visible" enable-background="new 0 0 778.652 382.956" xml:space="preserve">
<path fill-rule="evenodd" clip-rule="evenodd" d="M360.651,204.544c-0.215-6.697-0.863-11.737-2.088-15.337
	c-3.384-10.512-11.159-15.696-23.112-15.696c-8.206,0-14.903,2.52-19.584,7.342c-4.607,4.61-7.559,12.602-8.783,23.69
	L360.651,204.544L360.651,204.544z M380.596,252.639v15.984c-13.896,3.744-26.495,6.049-38.232,6.049
	c-17.208-0.001-31.103-5.257-41.4-15.913c-10.298-10.942-15.48-25.416-15.48-43.488c0-17.424,4.608-31.104,13.608-41.399
	c9.073-10.296,21.457-15.336,36.792-15.335c17.783-0.002,30.24,6.119,37.584,18.719c5.401,9.433,8.135,21.456,7.775,36.36
	l0.002,6.048h-74.377c0.648,8.208,2.088,14.328,3.959,18.719c5.905,14.041,18.073,20.953,35.929,20.953
	C356.835,259.334,368.211,257.246,380.596,252.639"/>
<path fill-rule="evenodd" clip-rule="evenodd" d="M405.22,268.408v-18.505c13.68,6.337,26.28,9.647,37.585,9.647
	c15.551-0.001,23.327-5.257,23.327-16.343c0-7.345-5.257-13.032-16.129-16.633l-18.07-5.832
	c-17.209-5.688-26.065-16.201-26.065-31.319c0-20.592,14.111-30.889,42.407-30.889c8.209,0,18.072,0.864,29.665,3.168l-0.001,16.992
	c-10.08-3.312-20.592-5.04-30.887-5.04c-14.112,0-21.24,4.464-21.241,13.896c0.001,6.48,4.825,11.521,14.473,14.688l16.2,5.254
	c19.943,6.48,30.024,17.642,30.024,33.842c0,10.297-3.959,18.432-11.952,24.552c-7.776,5.904-18.72,8.784-32.544,8.785
	C431.284,274.671,419.116,272.367,405.22,268.408"/>
<path fill-rule="evenodd" clip-rule="evenodd" d="M511.636,273.151v-111.24h20.377l-0.001,111.241L511.636,273.151L511.636,273.151z
	 M511.636,141.751v-20.16h20.376l0.001,20.161L511.636,141.751"/>
<path fill-rule="evenodd" clip-rule="evenodd" d="M626.404,228.087v-51.912c-9.433-1.656-16.344-2.52-20.735-2.52
	c-19.369,0-29.232,13.248-29.233,39.746c0.002,11.734,1.946,21.168,5.689,28.295c3.815,6.768,9,10.296,15.336,10.296
	C606.101,251.991,615.749,244.072,626.404,228.087L626.404,228.087z M626.403,246.375c-3.526,6.912-7.559,12.168-11.95,15.696
	c-6.049,5.039-13.033,7.56-21.169,7.56c-11.376,0-20.808-5.039-27.936-14.904c-7.128-9.863-10.729-22.896-10.729-39.023
	c-0.001-18.072,4.607-32.112,13.681-42.191c9.216-10.081,22.03-14.977,38.592-14.978c6.552,0.001,12.815,0.649,19.512,2.377
	l20.16,0.001v80.999c0,17.424-0.792,30.241-2.665,38.663c-4.895,22.897-22.103,34.633-51.262,34.633
	c-12.385,0-24.77-2.088-37.369-6.047V291.52c14.688,5.472,27.071,8.352,37.153,8.352c22.678,0,33.982-12.168,33.981-36.072V246.375"
	/>
<path fill-rule="evenodd" clip-rule="evenodd" d="M677.524,272.152l0.001-111.24l20.159-0.001v20.952
	c5.04-6.912,9.935-12.167,14.759-15.769c7.129-5.039,14.905-7.559,23.257-7.559c18.721,0.001,28.152,11.16,28.151,33.84v79.776
	h-20.159v-73.296c0-9-0.792-15.119-2.953-18.214c-1.656-3.17-5.255-4.826-10.439-4.825c-11.159,0-21.888,8.135-32.615,24.336v71.999
	L677.524,272.152"/>
<polyline fill-rule="evenodd" clip-rule="evenodd" fill="#FF0000" points="252.363,78.471 256.684,71.056 262.949,74.655 
	258.34,81.855 253.804,89.055 248.26,85.671 252.363,78.471 "/>
<rect x="80.318" y="280.064" width="698.334" height="2.887"/>
<rect x="246.609" fill-rule="evenodd" clip-rule="evenodd" width="16.441" height="304.533"/>
<path fill-rule="evenodd" clip-rule="evenodd" fill="none" stroke="#FF0000" stroke-width="17" d="M254.479,217.351
	c0,44.591-37.389,80.739-83.5,80.739c-46.113,0-83.5-36.148-83.5-80.739s37.387-80.74,83.5-80.74
	C217.09,136.611,254.479,172.76,254.479,217.351z"/>
<path fill="none" stroke="#FF0000" stroke-width="17" d="M284.86,331.491C154.442,433.722,8.5,336.751,8.5,215.774
	C8.5,88.991,163.86,3.491,279.86,96.491"/>
<g id="Ebene_2">
</g>
</svg>
